<svg width="69" height="68" viewBox="0 0 69 68" fill="none" xmlns="http://www.w3.org/2000/svg">
<rect width="69" height="68" rx="13" fill="#212121"/>
<path d="M24.84 46.48C22.6267 46.48 20.5867 46.1333 18.72 45.44C16.88 44.72 15.2667 43.7067 13.88 42.4C12.52 41.0933 11.4533 39.56 10.68 37.8C9.93333 36.04 9.56 34.1067 9.56 32C9.56 29.8933 9.93333 27.96 10.68 26.2C11.4533 24.44 12.5333 22.9067 13.92 21.6C15.3067 20.2933 16.9333 19.2933 18.8 18.6C20.6667 17.88 22.72 17.52 24.96 17.52C27.44 17.52 29.6667 17.9333 31.64 18.76C33.64 19.5867 35.32 20.7867 36.68 22.36L32.52 26.2C31.5067 25.1333 30.4 24.3467 29.2 23.84C28 23.3067 26.6933 23.04 25.28 23.04C23.92 23.04 22.68 23.2533 21.56 23.68C20.44 24.1067 19.4667 24.72 18.64 25.52C17.84 26.32 17.2133 27.2667 16.76 28.36C16.3333 29.4533 16.12 30.6667 16.12 32C16.12 33.3067 16.3333 34.5067 16.76 35.6C17.2133 36.6933 17.84 37.6533 18.64 38.48C19.4667 39.28 20.4267 39.8933 21.52 40.32C22.64 40.7467 23.8667 40.96 25.2 40.96C26.48 40.96 27.72 40.76 28.92 40.36C30.1467 39.9333 31.3333 39.2267 32.48 38.24L36.16 42.92C34.64 44.0667 32.8667 44.9467 30.84 45.56C28.84 46.1733 26.84 46.48 24.84 46.48ZM30.24 42.08V31.56H36.16V42.92L30.24 42.08Z" fill="white"/>
<path d="M45.12 52V29.28H36.16V24H60.56V29.28H51.6V52H45.12Z" fill="white"/>
</svg>
