<svg width="210" height="11" viewBox="0 0 210 11" fill="none" xmlns="http://www.w3.org/2000/svg">
<path d="M21.801 0.744348C21.3241 0.829176 20.8854 0.970555 20.4085 1.14021C19.8744 1.33815 19.3403 1.64918 18.8252 1.96022C18.5073 2.12988 18.1894 2.30896 17.8714 2.49747C17.4327 2.75195 16.994 3.03472 16.5552 3.31748C15.5252 3.93956 14.4951 4.61818 13.4459 5.1837C12.3396 5.74922 11.2332 6.14509 10.0696 6.39957C9.36378 6.4844 8.67706 6.48441 7.97126 6.45613C7.58975 6.42785 7.22731 6.3713 6.8458 6.31475C6.08278 6.17337 5.31977 6.032 4.57583 5.77751C3.94633 5.57958 3.29776 5.29682 2.64919 5.21199C1.79079 5.09888 0.779797 5.09887 0.150305 5.97543C-0.0404504 6.25819 -0.0595259 6.68234 0.150305 6.93683C0.360135 7.21959 0.70349 7.19131 0.932396 6.93683C0.932396 6.93683 0.938756 6.92741 0.951473 6.90856C1.00234 6.87086 1.05321 6.83315 1.10408 6.79545C1.16767 6.7766 1.23125 6.75774 1.29484 6.73889C1.37114 6.73889 1.44744 6.73889 1.52374 6.73889C1.80987 6.82372 2.05785 6.90856 2.30584 7.04994C2.9544 7.44581 3.5839 7.9265 4.25154 8.26581C4.60762 8.43547 4.96369 8.60512 5.31976 8.77478C5.6059 8.91616 5.9111 9.00098 6.17816 9.08581C6.72499 9.29317 7.27183 9.4534 7.81866 9.56651C8.31463 9.67961 8.81059 9.77387 9.30655 9.84927C10.0314 9.96237 10.7563 9.96238 11.4812 9.87756C12.9118 9.76445 14.2853 9.31203 15.5824 8.60513C16.1547 8.29409 16.7078 8.01132 17.2801 7.672C18.3865 7.02165 19.4929 6.3713 20.5993 5.74922C21.1906 5.46646 21.801 5.21199 22.4305 5.07061C22.7739 5.04233 23.0981 5.04233 23.4415 5.07061C24.0519 5.21199 24.6242 5.43819 25.1964 5.72096C26.0548 6.22993 26.8942 6.76717 27.7335 7.30441C28.5156 7.78511 29.3358 8.20925 30.1752 8.57684C30.8809 8.8596 31.6058 9.02927 32.3307 9.17065C33.0937 9.32146 33.8567 9.40628 34.6198 9.42513C36.2221 9.4534 37.8244 9.19893 39.3886 8.88789C40.3806 8.71823 41.3534 8.52029 42.3453 8.35064C42.587 8.31293 42.8286 8.27523 43.0702 8.23752C43.8523 8.12442 44.6153 8.18098 45.3783 8.29408C46.5229 8.52029 47.6483 8.88789 48.7738 9.17065C49.7466 9.42514 50.7195 9.65133 51.7114 9.79271C53.3901 10.0472 55.0496 10.0472 56.7283 9.93409C57.3578 9.87754 57.9873 9.79272 58.6167 9.70789C59.3225 9.62306 60.0283 9.45341 60.7532 9.3403C61.7833 9.17065 62.8134 8.91616 63.8434 8.71822C64.5874 8.63339 65.3122 8.60511 66.0562 8.66167C66.8955 8.71822 67.7158 8.83133 68.536 8.97272C70.043 9.2272 71.5499 9.48169 73.0569 9.45341C73.5147 9.43456 73.9662 9.42513 74.4113 9.42513C74.5448 9.42513 74.6783 9.36857 74.8118 9.36857C75.1425 9.33087 75.4668 9.29318 75.7847 9.25548C76.6431 9.14237 77.5015 8.97271 78.3599 8.77478C79.1865 8.56742 80.0067 8.35064 80.8206 8.12443C81.6218 7.9265 82.4039 7.67201 83.186 7.50235C83.701 7.4458 84.197 7.41752 84.693 7.4458C85.0936 7.4458 85.4751 7.50235 85.8756 7.55891C86.4288 7.61546 86.982 7.67202 87.5352 7.75684C88.0693 7.84167 88.6225 7.89822 89.1566 7.92649C89.7289 7.98305 90.3012 8.03961 90.8734 8.03961C91.2422 8.03961 91.6174 8.03961 91.9989 8.03961C92.5139 8.03961 93.048 7.98305 93.5822 7.92649C94.7076 7.81339 95.8331 7.5589 96.9394 7.24786C98.2747 6.88027 99.5909 6.3713 100.926 6.08854C101.441 6.00371 101.937 5.97544 102.433 6.00372C103.12 6.00372 103.788 6.11683 104.455 6.20165C105.396 6.37131 106.35 6.53153 107.317 6.68234C108.385 6.85199 109.472 6.99337 110.559 7.10648C111.494 7.21958 112.429 7.21959 113.363 7.27615C113.84 7.27615 114.317 7.24787 114.775 7.21959C115.252 7.21959 115.748 7.24787 116.225 7.19132C117.331 7.04994 118.438 6.96511 119.525 6.76718C120.612 6.56924 121.68 6.37131 122.768 6.1451C124.675 5.72096 126.583 5.26854 128.49 4.92923C129.292 4.8444 130.074 4.81611 130.875 4.90094C131.466 5.01404 132.038 5.1837 132.611 5.40991C132.973 5.55129 133.316 5.72096 133.679 5.86234C134.251 6.11682 134.823 6.34302 135.396 6.59751C136.521 7.04993 137.685 7.36098 138.848 7.61546C140.508 7.98305 142.206 8.18099 143.884 8.18099C145.563 8.20926 147.242 7.95476 148.901 7.672C149.931 7.50234 150.961 7.27615 151.991 7.04994C152.398 6.99339 152.805 6.9651 153.212 6.9651C153.594 6.93682 153.994 6.9651 154.376 7.02165C155.539 7.24786 156.703 7.58718 157.867 7.84167C158.553 7.97362 159.24 8.08673 159.927 8.18099C160.213 8.23754 160.499 8.29408 160.766 8.29408C161.16 8.31293 161.555 8.3412 161.949 8.37891C164.352 8.52029 166.737 8.01132 169.102 7.53062C169.713 7.47407 170.323 7.4458 170.933 7.50235C171.429 7.58718 171.906 7.72855 172.383 7.81338C173.146 7.98304 173.909 8.15271 174.672 8.26581C175.302 8.37892 175.931 8.46373 176.561 8.52029C177.171 8.57684 177.801 8.63339 178.411 8.66167C179.727 8.68994 181.005 8.66167 182.302 8.57684C182.932 8.52029 183.542 8.46374 184.172 8.40719C184.496 8.37892 184.801 8.32236 185.126 8.29408C185.717 8.20925 186.308 8.18098 186.9 8.20926C187.167 8.26581 187.453 8.37891 187.72 8.49202C188.076 8.69938 188.426 8.90674 188.769 9.1141C189.646 9.65134 190.581 10.0189 191.554 10.3017C192.832 10.641 194.148 10.7258 195.464 10.7824C196.113 10.8389 196.781 10.7824 197.429 10.7824C198.173 10.7541 198.917 10.7258 199.68 10.7258C200.958 10.7258 202.217 10.8389 203.495 10.8672C204.315 10.8955 205.098 10.8672 205.899 10.8672C206.223 10.8389 206.528 10.7824 206.833 10.7541C207.024 10.7353 207.215 10.7164 207.406 10.6976C207.959 10.641 208.474 10.4713 209.008 10.33C209.599 10.1886 210 9.39686 210 8.68995C210 7.98305 209.599 7.21959 209.008 7.07821C208.455 6.90855 207.902 6.73889 207.329 6.65407C206.935 6.57866 206.541 6.51268 206.147 6.45613C205.632 6.3713 205.079 6.34302 204.544 6.31475C203.266 6.22992 202.007 6.20165 200.729 6.1451C199.604 6.11682 198.497 6.11682 197.372 6.17337C195.903 6.22992 194.415 6.25821 192.947 6.06027C192.126 5.89062 191.344 5.63612 190.562 5.26853C189.666 4.75956 188.807 4.16576 187.853 3.85473C187.472 3.71335 187.052 3.68506 186.633 3.62851C186.289 3.57196 185.946 3.60024 185.602 3.60024C185.202 3.62852 184.782 3.65679 184.382 3.71335C183.332 3.79817 182.283 3.93955 181.234 3.96783C180.643 3.99611 180.032 4.05266 179.46 4.02439C178.85 4.02439 178.239 4.05266 177.648 3.99611C177.05 3.93956 176.446 3.883 175.836 3.82645C175.244 3.7699 174.672 3.62852 174.1 3.54369C174.265 3.56254 174.431 3.59081 174.596 3.62851C174.1 3.51541 173.598 3.40231 173.089 3.2892C172.345 3.11955 171.601 2.89333 170.838 2.8085C169.293 2.63885 167.748 3.00644 166.222 3.2892C166.285 3.27035 166.343 3.26093 166.393 3.26093C166.355 3.26093 166.311 3.27035 166.26 3.2892C166.26 3.2892 166.266 3.2892 166.279 3.2892C166.266 3.2892 166.254 3.2892 166.241 3.2892C166.088 3.30805 165.929 3.33633 165.764 3.37403C165.878 3.35518 165.993 3.33633 166.107 3.31748C165.497 3.40231 164.867 3.48714 164.257 3.57196C163.666 3.62852 163.074 3.62851 162.502 3.65679C161.93 3.68507 161.338 3.62852 160.766 3.60024C160.556 3.60024 160.346 3.54369 160.137 3.51541C159.87 3.49656 159.609 3.46829 159.355 3.43058C158.604 3.27978 157.854 3.11954 157.104 2.94989C155.806 2.61057 154.528 2.29954 153.212 2.27126C152.373 2.24298 151.553 2.41264 150.732 2.5823C150.313 2.6577 149.893 2.74253 149.473 2.83678C148.66 3.02529 147.846 3.19494 147.032 3.34575C146.459 3.44 145.887 3.52484 145.315 3.60024C144.476 3.71335 143.636 3.68507 142.797 3.68507C141.843 3.65679 140.889 3.57196 139.936 3.43058C138.639 3.1761 137.36 2.83678 136.121 2.38436C135.421 2.12045 134.734 1.84712 134.06 1.56435C132.668 0.998831 131.218 0.687792 129.749 0.687792C129.082 0.687792 128.395 0.800895 127.727 0.942276C127.365 0.998828 127.002 1.05538 126.64 1.14021C125.381 1.3947 124.103 1.70573 122.844 1.96022C121.49 2.27126 120.154 2.52574 118.8 2.78023C117.923 2.89333 117.045 2.99701 116.168 3.09127C115.901 3.11954 115.633 3.11954 115.366 3.11954C115.239 3.11954 115.112 3.11954 114.985 3.11954C114.463 3.1384 113.936 3.15725 113.402 3.1761C113.096 3.1761 112.772 3.14782 112.467 3.11954C111.92 3.08184 111.373 3.05357 110.826 3.03472C110.464 3.00644 110.102 2.94989 109.739 2.89334C109.281 2.83679 108.817 2.78023 108.347 2.72368C107.723 2.61057 107.1 2.49747 106.477 2.38436C104.799 2.07332 103.12 1.70574 101.403 1.76229C100.068 1.81884 98.7516 2.27126 97.4354 2.63885C96.4435 2.92161 95.4706 3.20437 94.4787 3.37403C93.7284 3.48713 92.9845 3.56254 92.2469 3.60024C91.9035 3.60024 91.5602 3.57196 91.2359 3.57196C90.5301 3.57196 89.8434 3.48714 89.1566 3.43058C87.8213 3.31748 86.5051 3.063 85.1699 2.89334C83.3195 2.66713 81.5264 3.17609 79.7333 3.65679C79.0085 3.8453 78.2899 4.02438 77.5778 4.19404C77.0437 4.30714 76.5096 4.42025 75.9755 4.50508C75.4668 4.58048 74.9581 4.64645 74.4494 4.703C74.2396 4.73128 74.0298 4.73129 73.839 4.73129C73.4829 4.75014 73.1269 4.75956 72.7708 4.75956C72.2557 4.78784 71.7025 4.70301 71.1875 4.67473C70.7488 4.64646 70.31 4.56163 69.8904 4.50508C68.0019 4.16576 66.1134 3.74162 64.2059 3.91127C63.1567 3.9961 62.0885 4.22232 61.0393 4.44853C60.2 4.61818 59.3607 4.77842 58.5214 4.92923C57.9237 5.00463 57.326 5.08003 56.7283 5.15543C55.908 5.26854 55.0687 5.26853 54.2484 5.26853C53.39 5.24025 52.5317 5.15543 51.6733 5.04232C50.5287 4.81611 49.3842 4.50508 48.2397 4.16577C47.7628 4.05266 47.305 3.91128 46.8281 3.79817C46.1795 3.62851 45.5119 3.54369 44.8442 3.45886C44.272 3.40231 43.6615 3.4023 43.0702 3.48713C41.9066 3.62851 40.743 3.85472 39.5794 4.10921C38.721 4.30714 37.8626 4.44852 37.0042 4.61818C36.3366 4.70301 35.6498 4.75957 34.9631 4.78785C34.2382 4.81612 33.5134 4.78784 32.7885 4.67473C31.8729 4.4768 30.9954 4.16576 30.137 3.76989C29.3549 3.31747 28.5728 2.83678 27.7716 2.38436C26.9132 1.87539 26.0548 1.3947 25.1583 1.05539C24.4525 0.772626 23.7086 0.659521 22.9837 0.631245C22.9328 0.631245 22.8819 0.631245 22.8311 0.631245C22.4877 0.631245 22.1444 0.687795 21.801 0.744348ZM166.107 3.31748C166.158 3.29863 166.203 3.2892 166.241 3.2892C166.241 3.2892 166.247 3.2892 166.26 3.2892C166.209 3.2892 166.158 3.29863 166.107 3.31748Z" fill="#A997E7"/>
</svg>
